# xmcd
#
# Track frame offsets: 
#        150
#        30705
#        46111
#        68120
#        88474
#        109628
#        127924
#        139607
#        158395
#        189296
#        206316
#        229161
#        248774
#        270893
#        290008
#        302325
#
# Disc length: 4381 seconds
#
# Revision: 0
# Processed by: cddbd v1.5.2PL0 Copyright (c) Steve Scherf et al.
# Submitted via: ExactAudioCopyFreeDBPlugin 1.0
#
DISCID=c9111b10
DTITLE=群星 - 试机15号
DYEAR=2010
DGENRE=Acid
TTITLE0=悲情城市
TTITLE1=采蘑菇的小姑娘
TTITLE2=小夜曲
TTITLE3=原乡人
TTITLE4=梦江南
TTITLE5=微风细雨
TTITLE6=春天圆舞曲
TTITLE7=小白船
TTITLE8=倾国倾城
TTITLE9=魂萦梦绕
TTITLE10=节日序曲
TTITLE11=嫂子颂
TTITLE12=草原之夜
TTITLE13=最真的梦
TTITLE14=艾伦泰勒
TTITLE15=鼓舞
EXTD=
EXTT0=
EXTT1=
EXTT2=
EXTT3=
EXTT4=
EXTT5=
EXTT6=
EXTT7=
EXTT8=
EXTT9=
EXTT10=
EXTT11=
EXTT12=
EXTT13=
EXTT14=
EXTT15=
PLAYORDER=
